<?xml version="1.0" encoding="utf-8"?>
<!-- Generator: Adobe Illustrator 25.2.3, SVG Export Plug-In . SVG Version: 6.00 Build 0)  -->
<svg version="1.1" id="Capa_1" xmlns="http://www.w3.org/2000/svg" xmlns:xlink="http://www.w3.org/1999/xlink" x="0px" y="0px"
	 viewBox="0 0 483.21 118" style="enable-background:new 0 0 483.21 118;" xml:space="preserve">
<style type="text/css">
	.st0{fill:#5D5C60;}
	.st1{fill:none;stroke:#5D5C60;stroke-width:0.75;stroke-miterlimit:10;}
	.st2{fill:#EEBB06;}
	.st3{fill:#035597;}
	.st4{fill:#D92A20;}
	.st5{fill:#D32317;}
</style>
<g>
	<g>
		<path class="st0" d="M155.22,49.13h2.49c0.05,1.62,0.51,2.92,1.38,3.88c0.87,0.96,2.02,1.44,3.44,1.44c1.53,0,2.74-0.48,3.63-1.43
			c0.89-0.96,1.34-2.25,1.34-3.89c0-2.38-1.84-4.18-5.52-5.39c-0.29-0.1-0.51-0.17-0.65-0.22c-1.92-0.66-3.31-1.5-4.16-2.52
			c-0.85-1.02-1.27-2.34-1.27-3.98c0-2.09,0.65-3.8,1.96-5.14c1.3-1.33,2.99-2,5.06-2c1.97,0,3.53,0.61,4.69,1.82
			c1.15,1.21,1.8,2.92,1.93,5.12h-2.43c-0.13-1.43-0.56-2.53-1.28-3.31c-0.72-0.78-1.69-1.16-2.9-1.16c-1.3,0-2.36,0.42-3.18,1.27
			c-0.82,0.85-1.23,1.93-1.23,3.24c0,0.68,0.12,1.28,0.37,1.78c0.25,0.5,0.64,0.95,1.18,1.36c0.55,0.41,1.61,0.87,3.17,1.37
			c0.9,0.29,1.59,0.52,2.06,0.7c1.71,0.66,2.94,1.51,3.69,2.53s1.13,2.38,1.13,4.05c0,2.55-0.69,4.6-2.08,6.16
			c-1.39,1.56-3.23,2.34-5.53,2.34c-2.14,0-3.88-0.74-5.21-2.21C155.95,53.47,155.26,51.53,155.22,49.13z"/>
		<path class="st0" d="M173.38,30.37h2.58v16.61c0,1.29,0.05,2.25,0.15,2.89c0.1,0.64,0.27,1.2,0.51,1.69
			c0.47,1,1.16,1.78,2.07,2.34c0.91,0.57,1.93,0.85,3.07,0.85c1.98,0,3.45-0.68,4.4-2.03c0.95-1.35,1.42-3.45,1.42-6.28V30.37h2.54
			v16.7c0,3.4-0.68,5.94-2.03,7.61c-1.35,1.67-3.4,2.51-6.16,2.51c-2.94,0-5.11-0.82-6.49-2.45c-1.38-1.64-2.07-4.19-2.07-7.66
			V30.37z"/>
		<path class="st0" d="M194.35,30.37h5.57c1.6,0,2.88,0.08,3.84,0.25c0.96,0.17,1.76,0.44,2.4,0.81c1.15,0.7,2.04,1.6,2.66,2.71
			c0.62,1.11,0.93,2.36,0.93,3.76c0,1.32-0.28,2.55-0.84,3.67c-0.56,1.12-1.34,2.02-2.34,2.68c-0.7,0.47-1.53,0.81-2.5,1.02
			s-2.2,0.32-3.71,0.32h-3.44v11.03h-2.58V30.37z M196.93,32.95v10.01h3.8c2.11,0,3.68-0.4,4.69-1.21c1.01-0.81,1.52-2.05,1.52-3.73
			c0-1.76-0.51-3.04-1.52-3.85c-1.02-0.81-2.65-1.22-4.9-1.22H196.93z"/>
		<path class="st0" d="M215.88,42.15h11.03v2.6h-11.03v9.34h11.03v2.54h-13.63V30.37h13.63v2.58h-11.03V42.15z"/>
		<path class="st0" d="M234,32.95v23.68h-2.54V30.37h7.05c1.55,0,2.8,0.12,3.74,0.35c0.94,0.23,1.8,0.62,2.57,1.16
			c1.04,0.73,1.87,1.71,2.48,2.94c0.61,1.23,0.91,2.52,0.91,3.9c0,2.03-0.6,3.78-1.81,5.25c-1.21,1.47-2.72,2.27-4.53,2.4
			l6.35,10.26h-3.07l-7.79-12.66h2.49c1.66,0,3.01-0.49,4.05-1.46c1.04-0.97,1.56-2.22,1.56-3.75c0-0.93-0.16-1.77-0.48-2.52
			c-0.32-0.76-0.79-1.42-1.41-1.98c-0.52-0.47-1.14-0.8-1.87-1c-0.73-0.2-2.02-0.3-3.89-0.3H234z"/>
		<path class="st0" d="M254.9,56.63h-2.58V30.37h2.58V56.63z"/>
		<path class="st0" d="M277.22,53.49l-0.31-23.12h2.56v26.25h-3.1l-14.41-23.15l0.29,23.15h-2.54V30.37h3.1L277.22,53.49z"/>
		<path class="st0" d="M290.03,56.63h-2.58V32.95h-5.25v-2.58h13.07v2.58h-5.25V56.63z"/>
		<path class="st0" d="M300.54,42.15h11.04v2.6h-11.04v9.34h11.04v2.54h-13.63V30.37h13.63v2.58h-11.04V42.15z"/>
		<path class="st0" d="M333.91,53.49l-0.31-23.12h2.56v26.25h-3.1l-14.41-23.15l0.29,23.15h-2.54V30.37h3.1L333.91,53.49z"/>
		<path class="st0" d="M341.11,30.37h7.46c2.06,0,3.78,0.2,5.18,0.61c1.4,0.41,2.64,1.06,3.71,1.97c1.5,1.26,2.67,2.81,3.5,4.63
			c0.83,1.83,1.24,3.78,1.24,5.86c0,2.32-0.46,4.43-1.37,6.34c-0.91,1.91-2.21,3.46-3.88,4.66c-1.11,0.78-2.3,1.34-3.59,1.68
			c-1.29,0.34-3.27,0.51-5.95,0.51h-6.31V30.37z M343.65,32.88v21.28h5.35c3.34,0,5.91-0.94,7.72-2.81c1.8-1.87,2.7-4.53,2.7-7.97
			c0-1.72-0.31-3.31-0.92-4.76c-0.61-1.45-1.49-2.67-2.63-3.66c-0.85-0.75-1.81-1.28-2.87-1.6c-1.06-0.32-2.6-0.48-4.62-0.48H343.65
			z"/>
		<path class="st0" d="M368.34,42.15h11.03v2.6h-11.03v9.34h11.03v2.54h-13.63V30.37h13.63v2.58h-11.03V42.15z"/>
		<path class="st0" d="M401.71,53.49l-0.31-23.12h2.56v26.25h-3.1l-14.41-23.15l0.29,23.15h-2.54V30.37h3.1L401.71,53.49z"/>
		<path class="st0" d="M429.84,37.17c-1.18-1.63-2.5-2.84-3.95-3.61c-1.45-0.77-3.11-1.15-4.98-1.15c-2.92,0-5.42,1.08-7.49,3.25
			c-2.07,2.16-3.11,4.74-3.11,7.72c0,3.17,1.03,5.85,3.09,8.02c2.06,2.18,4.57,3.26,7.51,3.26c1.81,0,3.46-0.38,4.92-1.14
			c1.47-0.76,2.74-1.89,3.82-3.39h3.06c-1.2,2.24-2.81,3.96-4.83,5.18c-2.02,1.22-4.29,1.83-6.8,1.83c-3.86,0-7.08-1.32-9.66-3.95
			c-2.58-2.63-3.87-5.92-3.87-9.86c0-1.84,0.35-3.58,1.05-5.23c0.7-1.65,1.72-3.13,3.07-4.45c1.25-1.25,2.65-2.2,4.21-2.84
			c1.56-0.64,3.24-0.96,5.06-0.96c2.61,0,4.95,0.64,7.04,1.91c2.09,1.27,3.74,3.08,4.95,5.41H429.84z"/>
		<path class="st0" d="M439.22,56.63h-2.58V30.37h2.58V56.63z"/>
		<path class="st0" d="M443.47,56.63h-2.72l10.19-26.25h3.1l10.15,26.25h-2.76l-3.14-8.24h-11.68L443.47,56.63z M457.39,46.02
			l-4.98-13.18l-4.9,13.18H457.39z"/>
	</g>
	<g>
		<path class="st0" d="M155.22,66.8h3.84c1.06,0,1.95,0.11,2.67,0.32c0.72,0.21,1.36,0.55,1.91,1.02c0.77,0.65,1.37,1.45,1.8,2.4
			c0.43,0.95,0.64,1.96,0.64,3.04c0,1.2-0.24,2.3-0.7,3.29c-0.47,0.99-1.14,1.79-2,2.42c-0.57,0.41-1.18,0.7-1.85,0.87
			c-0.66,0.17-1.68,0.26-3.06,0.26h-3.25V66.8z M156.53,68.1v11.03h2.76c1.72,0,3.04-0.49,3.97-1.46c0.93-0.97,1.39-2.35,1.39-4.13
			c0-0.89-0.16-1.71-0.47-2.47c-0.32-0.75-0.77-1.39-1.36-1.9c-0.44-0.39-0.93-0.66-1.48-0.83s-1.34-0.25-2.38-0.25H156.53z"/>
		<path class="st0" d="M169.24,72.91h5.68v1.35h-5.68v4.84h5.68v1.32h-7.02V66.8h7.02v1.34h-5.68V72.91z"/>
		<path class="st0" d="M184.14,72.91h5.68v1.35h-5.68v4.84h5.68v1.32h-7.02V66.8h7.02v1.34h-5.68V72.91z"/>
		<path class="st0" d="M203.13,70.33c-0.61-0.85-1.28-1.47-2.03-1.87c-0.75-0.4-1.6-0.6-2.56-0.6c-1.5,0-2.79,0.56-3.86,1.68
			c-1.07,1.12-1.6,2.46-1.6,4c0,1.65,0.53,3.03,1.59,4.16c1.06,1.13,2.35,1.69,3.87,1.69c0.93,0,1.78-0.2,2.53-0.59
			c0.75-0.39,1.41-0.98,1.97-1.76h1.58c-0.62,1.16-1.45,2.06-2.49,2.69s-2.21,0.95-3.5,0.95c-1.99,0-3.64-0.68-4.97-2.05
			c-1.33-1.36-1.99-3.07-1.99-5.11c0-0.95,0.18-1.86,0.54-2.71c0.36-0.85,0.88-1.62,1.58-2.31c0.64-0.65,1.37-1.14,2.17-1.47
			c0.8-0.33,1.67-0.5,2.6-0.5c1.34,0,2.55,0.33,3.62,0.99c1.07,0.66,1.92,1.6,2.55,2.8H203.13z"/>
		<path class="st0" d="M205.96,73.52c0-0.95,0.18-1.85,0.54-2.71c0.36-0.86,0.89-1.63,1.57-2.31c0.66-0.66,1.39-1.15,2.19-1.48
			s1.66-0.5,2.59-0.5c0.95,0,1.82,0.17,2.63,0.5c0.81,0.33,1.55,0.83,2.21,1.49c0.69,0.68,1.2,1.44,1.55,2.28
			c0.35,0.84,0.52,1.75,0.52,2.72c0,0.97-0.15,1.85-0.45,2.66c-0.3,0.81-0.74,1.54-1.34,2.2c-0.69,0.76-1.46,1.33-2.33,1.72
			c-0.87,0.39-1.81,0.58-2.82,0.58c-1.94,0-3.57-0.69-4.89-2.06C206.62,77.25,205.96,75.55,205.96,73.52z M207.35,73.54
			c0,1.66,0.54,3.05,1.61,4.17c1.07,1.12,2.39,1.68,3.96,1.68c1.53,0,2.83-0.57,3.89-1.7c1.06-1.13,1.59-2.53,1.59-4.19
			c0-1.55-0.54-2.88-1.63-4c-1.09-1.12-2.4-1.68-3.94-1.68c-0.62,0-1.23,0.11-1.8,0.32c-0.58,0.22-1.11,0.53-1.6,0.95
			c-0.64,0.55-1.15,1.22-1.52,2.01C207.53,71.9,207.35,72.71,207.35,73.54z"/>
		<path class="st0" d="M230.58,78.79l-0.16-11.98h1.32v13.61h-1.6l-7.42-12l0.15,12h-1.31V66.8h1.6L230.58,78.79z"/>
		<path class="st0" d="M233.6,73.52c0-0.95,0.18-1.85,0.54-2.71s0.89-1.63,1.57-2.31c0.66-0.66,1.39-1.15,2.19-1.48
			c0.8-0.33,1.66-0.5,2.59-0.5c0.95,0,1.82,0.17,2.63,0.5c0.81,0.33,1.55,0.83,2.21,1.49c0.69,0.68,1.2,1.44,1.55,2.28
			c0.35,0.84,0.52,1.75,0.52,2.72c0,0.97-0.15,1.85-0.45,2.66c-0.3,0.81-0.74,1.54-1.34,2.2c-0.69,0.76-1.46,1.33-2.33,1.72
			c-0.87,0.39-1.81,0.58-2.82,0.58c-1.94,0-3.57-0.69-4.89-2.06C234.26,77.25,233.6,75.55,233.6,73.52z M234.99,73.54
			c0,1.66,0.54,3.05,1.61,4.17c1.07,1.12,2.39,1.68,3.96,1.68c1.53,0,2.83-0.57,3.89-1.7c1.06-1.13,1.59-2.53,1.59-4.19
			c0-1.55-0.54-2.88-1.63-4c-1.09-1.12-2.4-1.68-3.94-1.68c-0.62,0-1.23,0.11-1.8,0.32c-0.58,0.22-1.11,0.53-1.6,0.95
			c-0.64,0.55-1.15,1.22-1.52,2.01C235.17,71.9,234.99,72.71,234.99,73.54z"/>
		<path class="st0" d="M249.32,80.41V66.8h1.96l4.68,11.83l4.66-11.83h1.96v13.61h-1.27V68.39l-4.75,12.02h-1.2l-4.75-12.02v12.02
			H249.32z"/>
		<path class="st0" d="M265.31,65.49h-0.85l1.94-3.27h1.41L265.31,65.49z M266.26,80.41h-1.33V66.8h1.33V80.41z"/>
		<path class="st0" d="M268.45,80.41h-1.4l5.24-13.61h1.6l5.22,13.61h-1.42l-1.62-4.27h-6.01L268.45,80.41z M275.61,74.92
			l-2.56-6.83l-2.52,6.83H275.61z"/>
		<path class="st0" d="M285.34,66.8h2.87c0.82,0,1.48,0.04,1.98,0.13c0.49,0.09,0.91,0.23,1.23,0.42c0.59,0.36,1.05,0.83,1.37,1.41
			c0.32,0.58,0.48,1.23,0.48,1.95c0,0.69-0.14,1.32-0.43,1.9c-0.29,0.58-0.69,1.04-1.2,1.39c-0.36,0.24-0.79,0.42-1.28,0.53
			c-0.5,0.11-1.13,0.16-1.91,0.16h-1.77v5.72h-1.33V66.8z M286.67,68.14v5.19h1.96c1.09,0,1.89-0.21,2.41-0.63
			c0.52-0.42,0.78-1.06,0.78-1.94c0-0.91-0.26-1.57-0.78-1.99c-0.52-0.42-1.36-0.63-2.52-0.63H286.67z"/>
		<path class="st0" d="M294.4,73.52c0-0.95,0.18-1.85,0.54-2.71c0.36-0.86,0.89-1.63,1.57-2.31c0.66-0.66,1.39-1.15,2.19-1.48
			c0.79-0.33,1.66-0.5,2.58-0.5c0.95,0,1.82,0.17,2.63,0.5c0.81,0.33,1.55,0.83,2.21,1.49c0.69,0.68,1.2,1.44,1.55,2.28
			c0.35,0.84,0.52,1.75,0.52,2.72c0,0.97-0.15,1.85-0.45,2.66c-0.3,0.81-0.74,1.54-1.34,2.2c-0.69,0.76-1.46,1.33-2.33,1.72
			c-0.87,0.39-1.81,0.58-2.82,0.58c-1.94,0-3.57-0.69-4.89-2.06S294.4,75.55,294.4,73.52z M295.79,73.54c0,1.66,0.54,3.05,1.6,4.17
			c1.07,1.12,2.39,1.68,3.96,1.68c1.53,0,2.83-0.57,3.89-1.7c1.06-1.13,1.59-2.53,1.59-4.19c0-1.55-0.54-2.88-1.63-4
			c-1.09-1.12-2.4-1.68-3.94-1.68c-0.62,0-1.23,0.11-1.81,0.32c-0.58,0.22-1.11,0.53-1.6,0.95c-0.64,0.55-1.15,1.22-1.52,2.01
			C295.97,71.9,295.79,72.71,295.79,73.54z"/>
		<path class="st0" d="M309.9,66.8h2.87c0.82,0,1.48,0.04,1.98,0.13c0.49,0.09,0.91,0.23,1.23,0.42c0.59,0.36,1.05,0.83,1.37,1.41
			c0.32,0.58,0.48,1.23,0.48,1.95c0,0.69-0.14,1.32-0.43,1.9c-0.29,0.58-0.69,1.04-1.2,1.39c-0.36,0.24-0.79,0.42-1.28,0.53
			c-0.5,0.11-1.13,0.16-1.91,0.16h-1.77v5.72h-1.33V66.8z M311.23,68.14v5.19h1.96c1.09,0,1.89-0.21,2.41-0.63
			c0.52-0.42,0.78-1.06,0.78-1.94c0-0.91-0.26-1.57-0.78-1.99c-0.52-0.42-1.36-0.63-2.52-0.63H311.23z"/>
		<path class="st0" d="M319.44,66.8h1.33v8.61c0,0.67,0.03,1.16,0.08,1.5s0.14,0.62,0.26,0.88c0.24,0.52,0.6,0.92,1.06,1.22
			c0.47,0.29,0.99,0.44,1.58,0.44c1.02,0,1.78-0.35,2.26-1.05c0.49-0.7,0.73-1.79,0.73-3.26V66.8h1.31v8.66
			c0,1.76-0.35,3.08-1.04,3.95c-0.7,0.87-1.75,1.3-3.17,1.3c-1.52,0-2.63-0.42-3.34-1.27c-0.71-0.85-1.07-2.17-1.07-3.97V66.8z"/>
		<path class="st0" d="M336.47,80.41h-6.09V66.8h1.34V79.1h4.75V80.41z"/>
		<path class="st0" d="M337.89,80.41h-1.4l5.24-13.61h1.6l5.23,13.61h-1.42l-1.62-4.27h-6.01L337.89,80.41z M345.06,74.92
			l-2.56-6.83l-2.52,6.83H345.06z"/>
		<path class="st0" d="M350.69,68.14v12.27h-1.31V66.8h3.63c0.8,0,1.44,0.06,1.93,0.18c0.49,0.12,0.93,0.32,1.32,0.6
			c0.54,0.38,0.96,0.89,1.28,1.52c0.31,0.64,0.47,1.31,0.47,2.02c0,1.05-0.31,1.96-0.93,2.72c-0.62,0.76-1.4,1.17-2.33,1.24
			l3.27,5.32h-1.58l-4.01-6.56h1.28c0.85,0,1.55-0.25,2.08-0.76c0.54-0.51,0.8-1.15,0.8-1.94c0-0.48-0.08-0.92-0.25-1.31
			c-0.16-0.39-0.41-0.73-0.73-1.03c-0.27-0.24-0.59-0.42-0.96-0.52c-0.37-0.1-1.04-0.15-2-0.15H350.69z"/>
		<path class="st0" d="M369.42,75.41v5h-1.31v-5.02l-4.32-8.59h1.52l3.45,7.07l3.49-7.07h1.48L369.42,75.41z"/>
		<path class="st0" d="M379.26,76.53h1.28c0.02,0.84,0.26,1.51,0.71,2.01c0.45,0.5,1.04,0.75,1.77,0.75c0.79,0,1.41-0.25,1.87-0.74
			c0.46-0.5,0.69-1.17,0.69-2.01c0-1.23-0.95-2.17-2.84-2.8c-0.15-0.05-0.26-0.09-0.33-0.11c-0.99-0.34-1.7-0.78-2.14-1.3
			c-0.44-0.53-0.65-1.21-0.65-2.06c0-1.08,0.34-1.97,1.01-2.66c0.67-0.69,1.54-1.04,2.6-1.04c1.01,0,1.82,0.31,2.41,0.94
			c0.59,0.63,0.93,1.51,0.99,2.66h-1.25c-0.07-0.74-0.29-1.31-0.66-1.72c-0.37-0.4-0.87-0.6-1.49-0.6c-0.67,0-1.21,0.22-1.64,0.66
			c-0.42,0.44-0.64,1-0.64,1.68c0,0.36,0.06,0.66,0.19,0.92c0.13,0.26,0.33,0.49,0.61,0.71c0.28,0.21,0.83,0.45,1.63,0.71
			c0.46,0.15,0.82,0.27,1.06,0.36c0.88,0.34,1.51,0.78,1.9,1.31c0.39,0.53,0.58,1.23,0.58,2.1c0,1.32-0.36,2.39-1.07,3.19
			c-0.71,0.81-1.66,1.21-2.84,1.21c-1.1,0-2-0.38-2.68-1.14C379.63,78.78,379.28,77.77,379.26,76.53z"/>
		<path class="st0" d="M388.12,73.52c0-0.95,0.18-1.85,0.54-2.71c0.36-0.86,0.89-1.63,1.57-2.31c0.66-0.66,1.39-1.15,2.19-1.48
			s1.66-0.5,2.59-0.5c0.95,0,1.82,0.17,2.63,0.5c0.81,0.33,1.55,0.83,2.21,1.49c0.69,0.68,1.2,1.44,1.55,2.28
			c0.35,0.84,0.52,1.75,0.52,2.72c0,0.97-0.15,1.85-0.45,2.66c-0.3,0.81-0.74,1.54-1.34,2.2c-0.69,0.76-1.46,1.33-2.33,1.72
			c-0.87,0.39-1.81,0.58-2.82,0.58c-1.94,0-3.57-0.69-4.89-2.06C388.78,77.25,388.12,75.55,388.12,73.52z M389.51,73.54
			c0,1.66,0.54,3.05,1.61,4.17c1.07,1.12,2.39,1.68,3.96,1.68c1.53,0,2.83-0.57,3.89-1.7c1.06-1.13,1.59-2.53,1.59-4.19
			c0-1.55-0.54-2.88-1.63-4c-1.09-1.12-2.4-1.68-3.94-1.68c-0.62,0-1.23,0.11-1.8,0.32c-0.58,0.22-1.11,0.53-1.6,0.95
			c-0.64,0.55-1.15,1.22-1.52,2.01C389.7,71.9,389.51,72.71,389.51,73.54z"/>
		<path class="st0" d="M409.86,80.41h-6.09V66.8h1.34V79.1h4.75V80.41z"/>
		<path class="st0" d="M412.91,80.41h-1.33V66.8h1.33V80.41z"/>
		<path class="st0" d="M415.43,66.8h3.84c1.06,0,1.95,0.11,2.67,0.32c0.72,0.21,1.36,0.55,1.91,1.02c0.77,0.65,1.37,1.45,1.8,2.4
			c0.43,0.95,0.64,1.96,0.64,3.04c0,1.2-0.24,2.3-0.7,3.29c-0.47,0.99-1.14,1.79-2,2.42c-0.57,0.41-1.18,0.7-1.85,0.87
			c-0.66,0.17-1.68,0.26-3.06,0.26h-3.25V66.8z M416.73,68.1v11.03h2.76c1.72,0,3.04-0.49,3.97-1.46c0.93-0.97,1.39-2.35,1.39-4.13
			c0-0.89-0.16-1.71-0.47-2.47c-0.32-0.75-0.77-1.39-1.36-1.9c-0.44-0.39-0.93-0.66-1.48-0.83s-1.34-0.25-2.38-0.25H416.73z"/>
		<path class="st0" d="M427.78,80.41h-1.4l5.24-13.61h1.6l5.22,13.61h-1.42l-1.62-4.27h-6.01L427.78,80.41z M434.95,74.92
			l-2.56-6.83l-2.52,6.83H434.95z"/>
		<path class="st0" d="M440.58,68.14v12.27h-1.31V66.8h3.63c0.8,0,1.44,0.06,1.93,0.18c0.49,0.12,0.93,0.32,1.32,0.6
			c0.54,0.38,0.96,0.89,1.28,1.52c0.31,0.64,0.47,1.31,0.47,2.02c0,1.05-0.31,1.96-0.93,2.72c-0.62,0.76-1.4,1.17-2.33,1.24
			l3.27,5.32h-1.58l-4.01-6.56h1.28c0.85,0,1.55-0.25,2.08-0.76c0.54-0.51,0.8-1.15,0.8-1.94c0-0.48-0.08-0.92-0.25-1.31
			c-0.16-0.39-0.41-0.73-0.73-1.03c-0.27-0.24-0.59-0.42-0.96-0.52c-0.37-0.1-1.04-0.15-2-0.15H440.58z"/>
		<path class="st0" d="M451.34,80.41h-1.33V66.8h1.33V80.41z"/>
		<path class="st0" d="M453.53,80.41h-1.4l5.24-13.61h1.6l5.22,13.61h-1.42l-1.62-4.27h-6.01L453.53,80.41z M460.69,74.92
			l-2.56-6.83l-2.52,6.83H460.69z"/>
	</g>
	<line class="st1" x1="154.48" y1="60.22" x2="464.93" y2="60.22"/>
</g>
<g>
	<g>
		<path class="st2" d="M68.35,44.75c9.16-9.16,21.35-14.21,34.31-14.21c12.96,0,25.14,5.05,34.31,14.21c2.6,2.6,4.87,5.44,6.78,8.48
			c-10.1-24.07-33.89-40.98-61.63-40.98c-36.9,0-66.81,29.91-66.81,66.81h38.82c0-0.32,0.01-0.63,0.01-0.95
			C54.4,65.5,59.42,53.69,68.35,44.75z"/>
		<path class="st3" d="M102.66,35.04c-11.76,0-22.81,4.58-31.13,12.89c-2.98,2.98-5.47,6.31-7.45,9.89
			c4.8-4.02,10.99-6.44,17.73-6.44c15.26,0,27.67,12.41,27.67,27.67h37.2c0-11.76-4.58-22.81-12.89-31.13
			C125.47,39.62,114.42,35.04,102.66,35.04z"/>
		<path class="st4" d="M58.64,79.06L58.64,79.06c0.01-0.28,0.01-0.56,0.02-0.83C58.65,78.5,58.64,78.78,58.64,79.06z"/>
	</g>
	<path class="st5" d="M105,79.07c0,12.81-10.38,23.19-23.19,23.19c-12.81,0-23.19-10.38-23.19-23.19
		c0-12.81,10.39-23.19,23.19-23.19C94.62,55.88,105,66.27,105,79.07z"/>
</g>
</svg>
